<svg width="607" height="686" viewBox="0 0 607 686" xmlns="http://www.w3.org/2000/svg" xmlns:xlink="http://www.w3.org/1999/xlink"><defs><path id="a" d="M0 682.667h682.667V0H0z"/></defs><g transform="scale(1 -1) rotate(-30 -934.282 103.533)" fill="none" fill-rule="evenodd"><mask id="b" fill="#fff"><use xlink:href="#a"/></mask><g mask="url(#b)"><path d="M520.376 559.405c0 33.139-26.864 60.004-60.004 60.004a60.08 60.08 0 0 1-14.507-1.777c-2.528 30.812-28.318 55.035-59.782 55.035-17.788 0-33.762-7.747-44.75-20.044-10.988 12.297-26.961 20.044-44.75 20.044-31.463 0-57.252-24.223-59.782-55.035a60.071 60.071 0 0 1-14.506 1.777c-33.14 0-60.004-26.865-60.004-60.004 0-107.137 179.042-297.817 179.042-297.817s179.043 190.68 179.043 297.817" fill="#A3E440" fill-rule="nonzero"/><path d="M350.469 448.484c-4.852 0-9.556.664-14.042 1.87a86.569 86.569 0 0 1 1.26 14.734c0 27.093-12.348 51.356-31.716 67.457 9.691 14.219 26.023 23.584 44.498 23.584 29.669 0 53.809-24.153 53.809-53.822 0-29.67-24.14-53.823-53.81-53.823m0 141.53c-31.295 0-58.797-16.495-74.315-41.217a87.414 87.414 0 0 1-26.16 3.984c-33.18 0-62.118-18.528-77.014-45.77 6.087-16.93 14.45-34.644 24.235-52.468a53.041 53.041 0 0 0-1.044 10.545c0 29.67 24.153 53.81 53.823 53.81 4.853 0 9.556-.651 14.029-1.871a87.814 87.814 0 0 1-1.261-14.72c0-27.095 12.361-51.356 31.73-67.458-9.692-14.218-26.024-23.584-44.498-23.584-13.31 0-25.482 4.852-34.887 12.863 9.988-15.94 20.71-31.663 31.525-46.68a90.648 90.648 0 0 1 3.362-.068c31.282 0 58.784 16.481 74.317 41.217a87.419 87.419 0 0 1 26.159-3.998c48.36 0 87.694 39.348 87.694 87.708s-39.334 87.708-87.694 87.708" fill="#8DC637" fill-rule="nonzero"/><path d="M336.96 257.48a6 6 0 0 1 8.747 0l.01.012.027.028a135.805 135.805 0 0 1 .495.53c.43.463.937 1.01 1.517 1.639a827.605 827.605 0 0 1 5.724 6.28 1247.819 1247.819 0 0 1 20.38 23.178c21.076 24.547 42.152 50.776 61.834 77.626 19.32 26.357 36.262 51.93 50.162 76.226 26.116 45.647 40.52 84.97 40.52 116.406 0 36.453-29.55 66.004-66.004 66.004a66.03 66.03 0 0 1-8.525-.552l-.882-.121-.08.428c-5.8 30.302-32.221 53.01-63.772 53.495l-1.03.008a65.772 65.772 0 0 1-44.375-17.153l-.375-.345-.375.345a65.785 65.785 0 0 1-43.733 17.153h-.641c-32.004 0-58.938-22.872-64.803-53.502l-.08-.43-.881.122a66.004 66.004 0 0 1-7.571.545l-.954.007c-36.454 0-66.004-29.551-66.004-66.004 0-31.436 14.404-70.76 40.52-116.406 13.899-24.296 30.841-49.869 50.162-76.226 19.681-26.85 40.757-53.079 61.832-77.626a1247.819 1247.819 0 0 1 20.381-23.177 827.603 827.603 0 0 1 5.725-6.281 474.281 474.281 0 0 1 2.048-2.208Zm4.373 12.96-.015.017a909.44 909.44 0 0 0-3.224 3.554 1235.872 1235.872 0 0 0-20.184 22.953c-20.888 24.329-41.775 50.323-61.259 76.903-19.071 26.017-35.77 51.223-49.425 75.091-25.167 43.989-38.935 81.576-38.935 110.447 0 29.826 24.178 54.004 54.004 54.004 4.429 0 8.8-.542 13.06-1.6 3.59-.892 7.123 1.645 7.426 5.332 2.29 27.888 25.65 49.526 53.803 49.526 15.584 0 30.084-6.636 40.275-18.042a6 6 0 0 1 8.948 0c10.192 11.406 24.691 18.042 40.276 18.042 28.152 0 51.514-21.638 53.802-49.526.303-3.687 3.837-6.224 7.427-5.332a54.075 54.075 0 0 0 13.06 1.6c29.826 0 54.004-24.178 54.004-54.004 0-28.87-13.769-66.458-38.935-110.447-13.656-23.868-30.355-49.074-49.426-75.09-19.484-26.58-40.371-52.575-61.259-76.904a1235.873 1235.873 0 0 0-20.183-22.953 909.437 909.437 0 0 0-3.225-3.554l-.015-.016Z" fill="#000" fill-rule="nonzero"/><path d="M350.465 583.232c-29.675 0-53.816-24.143-53.816-53.818 0-29.673 24.141-53.816 53.816-53.816 29.675 0 53.817 24.143 53.817 53.816 0 29.675-24.142 53.818-53.817 53.818m0-141.519c-48.359 0-87.701 39.343-87.701 87.701 0 48.36 39.342 87.703 87.7 87.703 48.36 0 87.704-39.343 87.704-87.703 0-48.358-39.343-87.7-87.703-87.7" fill="#FFD496" fill-rule="nonzero"/><path d="M350.465 435.713c51.673 0 93.703 42.029 93.703 93.701 0 51.674-42.03 93.703-93.703 93.703s-93.701-42.03-93.701-93.703c0-51.672 42.029-93.7 93.7-93.7Zm0 12c-45.045 0-81.701 36.656-81.701 81.701 0 45.046 36.656 81.703 81.7 81.703 45.047 0 81.704-36.656 81.704-81.703 0-45.045-36.657-81.7-81.703-81.7Zm0 21.885c32.988 0 59.817 26.83 59.817 59.816 0 32.989-26.829 59.818-59.817 59.818s-59.816-26.829-59.816-59.818c0-32.987 26.828-59.816 59.816-59.816Zm0 12c-26.36 0-47.816 21.456-47.816 47.816 0 26.362 21.455 47.818 47.816 47.818 26.36 0 47.817-21.457 47.817-47.818 0-26.36-21.456-47.816-47.817-47.816Z" fill="#000" fill-rule="nonzero"/><path d="M512.93 603.492c-36.558-3.52-65.73-32.694-69.253-69.25-.404-4.206-3.872-7.447-8.097-7.447h-32.356c-4.693 0-8.444 3.968-8.124 8.65 4.263 62.362 54.263 112.362 116.625 116.626 4.684.32 8.65-3.43 8.65-8.125V611.59c0-4.226-3.24-7.692-7.446-8.098" fill="#FB9927" fill-rule="nonzero"/><path d="M435.58 520.795c7.32 0 13.37 5.592 14.07 12.871 3.247 33.698 30.157 60.608 63.854 63.854 7.28.702 12.872 6.751 12.872 14.07v32.356c0 8.167-6.907 14.668-15.06 14.111-65.354-4.468-117.735-56.85-122.202-122.202-.557-8.152 5.944-15.06 14.11-15.06h32.356Zm0 12h-32.356c-1.237 0-2.22 1.044-2.138 2.242 4.058 59.37 51.677 106.989 111.048 111.048 1.198.082 2.242-.9 2.242-2.14V611.59c0-1.092-.85-2.012-2.022-2.125-39.416-3.797-70.85-35.232-74.65-74.65-.112-1.17-1.032-2.02-2.124-2.02Z" fill="#000" fill-rule="nonzero"/><path d="M460.531 627.74c-32.069-17.898-47.081-56.326-35.634-91.222 1.317-4.015-.558-8.375-4.427-10.07l-29.636-12.987c-4.3-1.884-9.327.244-10.913 4.662-21.126 58.83 4.602 124.694 60.01 153.628 4.162 2.174 9.3.33 11.184-3.969l12.987-29.636c1.696-3.87.119-8.347-3.57-10.405" fill="#FCB44D" fill-rule="nonzero"/><path d="M374.274 516.096c2.761-7.691 11.487-11.408 18.968-8.13l29.637 12.986c6.703 2.938 9.999 10.487 7.719 17.436-10.552 32.167 3.296 67.614 32.857 84.114 6.387 3.563 9.08 11.35 6.143 18.052l-12.987 29.637c-3.278 7.48-12.214 10.662-19.457 6.879-58.066-30.323-85.019-99.323-62.88-160.974Zm14.152 2.86c-1.135-.497-2.452.065-2.858 1.195-20.112 56.008 4.39 118.735 57.14 146.282 1.065.556 2.415.075 2.912-1.06l12.987-29.636c.438-.999.028-2.184-1-2.757-34.577-19.299-50.753-60.707-38.411-98.333.367-1.118-.135-2.266-1.134-2.704l-29.636-12.987Z" fill="#000" fill-rule="nonzero"/><path d="M511.541 480.79c0-43.588-35.334-78.922-78.922-78.922-43.587 0-78.922 35.334-78.922 78.922 0 43.588 35.335 78.923 78.922 78.923 43.588 0 78.922-35.335 78.922-78.923" fill="#E01058" fill-rule="nonzero"/><path d="M511.544 480.797c0-43.59-35.335-78.924-78.925-78.924-7.034 0-13.852.921-20.331 2.642 33.736 8.972 58.595 39.727 58.595 76.282 0 36.541-24.859 67.294-58.595 76.268a79.101 79.101 0 0 0 20.33 2.642c43.591 0 78.926-35.334 78.926-78.91" fill="#CF0F51" fill-rule="nonzero"/><path d="M432.619 395.868c46.901 0 84.922 38.02 84.922 84.922 0 46.902-38.02 84.923-84.922 84.923-46.9 0-84.922-38.021-84.922-84.923 0-46.901 38.021-84.922 84.922-84.922Zm0 12c-40.273 0-72.922 32.648-72.922 72.922 0 40.274 32.649 72.923 72.922 72.923 40.274 0 72.922-32.648 72.922-72.923 0-40.274-32.648-72.922-72.922-72.922Z" fill="#000" fill-rule="nonzero"/><path d="M477.352 480.79c0-24.705-20.028-44.732-44.732-44.732-24.705 0-44.733 20.027-44.733 44.732 0 24.706 20.028 44.732 44.733 44.732 24.704 0 44.732-20.026 44.732-44.732" fill="#FC5A95" fill-rule="nonzero"/><path d="M477.347 480.797c0-24.71-20.018-44.742-44.728-44.742-4.73 0-9.284.732-13.553 2.102 18.08 5.732 31.173 22.661 31.173 42.64 0 19.965-13.093 36.893-31.173 42.64a44.7 44.7 0 0 0 13.553 2.088c24.71 0 44.728-20.034 44.728-44.728" fill="#FB3A82" fill-rule="nonzero"/><path d="M432.62 430.058c28.018 0 50.732 22.714 50.732 50.732 0 28.019-22.714 50.732-50.732 50.732-28.02 0-50.733-22.713-50.733-50.732 0-28.018 22.714-50.732 50.733-50.732Zm0 12c-21.392 0-38.733 17.341-38.733 38.732 0 21.392 17.34 38.732 38.733 38.732 21.39 0 38.732-17.34 38.732-38.732 0-21.39-17.341-38.732-38.732-38.732Z" fill="#000" fill-rule="nonzero"/><path d="M403.252 438.373c0-42.321-34.308-76.63-76.63-76.63-42.32 0-76.63 34.309-76.63 76.63s34.31 76.63 76.63 76.63c42.322 0 76.63-34.309 76.63-76.63" fill="#A64B35" fill-rule="nonzero"/><path d="M311.908 513.584c-12.74-2.467-24.356-8.106-34.007-16.048 15.519-9.46 25.901-26.54 25.901-46.003 0-25.915-18.406-47.615-42.83-52.697a76.93 76.93 0 0 1 26.728-26.484c29.534 14.122 49.988 44.308 49.988 79.18 0 24.209-9.868 46.166-25.78 62.052" fill="#8B3D2A" fill-rule="nonzero"/><path d="M403.248 438.373c0-42.316-34.306-76.635-76.62-76.635-7.035 0-13.852.95-20.332 2.739 32.45 8.905 56.29 38.614 56.29 73.896 0 35.281-23.84 64.99-56.29 73.896a76.281 76.281 0 0 0 20.332 2.738c42.314 0 76.62-34.318 76.62-76.634" fill="#8B3D2A" fill-rule="nonzero"/><path d="M326.622 355.744c45.635 0 82.63 36.994 82.63 82.63 0 45.634-36.995 82.628-82.63 82.628s-82.63-36.994-82.63-82.629c0-45.635 36.995-82.63 82.63-82.63Zm0 12c-39.008 0-70.63 31.622-70.63 70.63 0 39.006 31.622 70.628 70.63 70.628 39.008 0 70.63-31.621 70.63-70.629 0-39.008-31.622-70.63-70.63-70.63Z" fill="#000" fill-rule="nonzero"/><path d="M249.992 546.007c-29.675 0-53.816-24.143-53.816-53.818 0-29.673 24.141-53.816 53.816-53.816 29.674 0 53.817 24.143 53.817 53.816 0 29.675-24.143 53.818-53.817 53.818m0-141.52c-48.359 0-87.702 39.344-87.702 87.702 0 48.36 39.343 87.703 87.702 87.703 48.36 0 87.702-39.343 87.702-87.703 0-48.358-39.342-87.701-87.702-87.701" fill="#FEE7C9" fill-rule="nonzero"/><path d="M249.991 398.489c51.674 0 93.703 42.028 93.703 93.7 0 51.673-42.03 93.702-93.703 93.702-51.672 0-93.7-42.029-93.7-93.701 0-51.673 42.028-93.701 93.7-93.701Zm0 12c-45.044 0-81.7 36.656-81.7 81.7 0 45.046 36.656 81.702 81.7 81.702 45.047 0 81.703-36.656 81.703-81.701 0-45.045-36.656-81.701-81.703-81.701Zm0 21.884c32.99 0 59.818 26.828 59.818 59.817 0 32.989-26.828 59.817-59.818 59.817a59.504 59.504 0 0 1-22.366-4.354 6 6 0 0 1 4.5-11.124 47.506 47.506 0 0 0 17.866 3.478c26.362 0 47.818-21.456 47.818-47.817 0-26.362-21.456-47.817-47.818-47.817-26.36 0-47.816 21.456-47.816 47.817 0 5.033.79 9.97 2.323 14.698a6 6 0 1 1-11.416 3.7 59.578 59.578 0 0 1-2.907-18.398c0-32.989 26.828-59.817 59.816-59.817Z" fill="#000" fill-rule="nonzero"/><path d="M511.47 444.516 485.165 39.804c-1.09-16.761-15.003-29.799-31.799-29.799H294.632c-18.658 0-33.323 15.958-31.752 34.548l16.956 200.706c7.453 88.206 60.068 166.256 139.037 206.25l46.403 23.5c22.01 11.148 47.794-5.872 46.194-30.493" fill="#DFDBB9" fill-rule="nonzero"/><path d="M511.476 444.513 485.168 39.805C484.07 23.039 470.164 10 453.371 10h-40.663c16.793 0 30.7 13.038 31.797 29.804l26.31 404.708c.732 11.33-4.324 21.049-12.146 27.148l6.602 3.348c22.012 11.154 47.804-5.868 46.205-30.496" fill="#D4CFA5" fill-rule="nonzero"/><path d="M453.366 4.006c19.96 0 36.492 15.492 37.786 35.41l16.918 260.27a6 6 0 1 1-11.975.778l-16.917-260.27c-.885-13.606-12.178-24.188-25.812-24.188h-82.945a6 6 0 1 1 0-12h82.945Z" fill="#000" fill-rule="nonzero"/><path d="M279.331 239.28a6 6 0 0 1 6.484 5.473c7.277 86.133 58.655 162.348 135.77 201.403l46.4 23.501c17.869 9.048 38.797-4.767 37.497-24.752l-6.434-99.003a6 6 0 1 1 11.975-.778l6.434 99.002c1.903 29.257-28.736 49.482-54.893 36.237l-46.401-23.502c-80.827-40.934-134.678-120.818-142.305-211.098a6 6 0 0 1 5.473-6.484Z" fill="#000" fill-rule="nonzero"/><path d="M197.502 39.804c1.09-16.761 15.002-29.799 31.798-29.799h158.736c18.656 0 33.322 15.958 31.75 34.548L402.832 245.26c-7.453 88.206-60.068 166.256-139.037 206.25l-46.403 23.5c-22.01 11.148-47.795-5.872-46.195-30.493l26.306-404.712Z" fill="#EBE8CD" fill-rule="nonzero"/><path d="M388.04 10H347.38c18.65 0 33.315 15.967 31.743 34.55l-16.956 200.706c-7.455 88.21-60.058 166.253-139.036 206.25l-39.795 20.155c9.176 7.184 22.175 9.366 34.061 3.348l46.395-23.502c78.979-39.998 131.581-118.042 139.036-206.251l16.956-200.707C421.356 25.967 406.69 10 388.04 10" fill="#DCD8B4" fill-rule="nonzero"/><path d="M295.456 4.006a6 6 0 0 1 0 12H229.3c-13.634 0-24.926 10.582-25.81 24.187l-26.307 404.712c-1.299 19.985 19.63 33.8 37.497 24.752l46.402-23.5c77.114-39.055 128.493-115.27 135.77-201.403l16.957-200.706c1.275-15.09-10.63-28.042-25.773-28.042H341.01a6 6 0 0 1 0-12h47.026c22.169 0 39.597 18.962 37.73 41.053L408.81 245.764c-7.627 90.279-61.479 170.164-142.305 211.098l-46.403 23.5c-26.155 13.247-56.794-6.979-54.893-36.235l26.307-404.712c1.294-19.917 17.826-35.41 37.785-35.41h66.156Z" fill="#000" fill-rule="nonzero"/><path d="M279.957 60.877a6 6 0 0 1 6 6v.14a6 6 0 1 1-12 0v-.14a6 6 0 0 1 6-6Z" fill="#000" fill-rule="nonzero"/><path d="M245.571 60.877a6 6 0 0 1 6 6v.14a6 6 0 1 1-12 0v-.14a6 6 0 0 1 6-6Z" fill="#000" fill-rule="nonzero"/><path d="M262.764 87.005a6 6 0 0 1 6 6v.14a6 6 0 1 1-12 0v-.14a6 6 0 0 1 6-6Z" fill="#000" fill-rule="nonzero"/><path d="M447.094 366.398a6 6 0 0 1 6 6v.14a6 6 0 1 1-12 0v-.14a6 6 0 0 1 6-6Z" fill="#000" fill-rule="nonzero"/><path d="M412.708 366.398a6 6 0 0 1 6 6v.14a6 6 0 1 1-12 0v-.14a6 6 0 0 1 6-6Z" fill="#000" fill-rule="nonzero"/><path d="M429.9 392.526a6 6 0 0 1 6 6v.14a6 6 0 1 1-12 0v-.14a6 6 0 0 1 6-6Z" fill="#000" fill-rule="nonzero"/><path d="M332.915 308.594a6 6 0 0 1 6 6v.14a6 6 0 1 1-12 0v-.14a6 6 0 0 1 6-6Z" fill="#000" fill-rule="nonzero"/><path d="M315.722 334.722a6 6 0 0 1 6 6v.14a6 6 0 1 1-12 0v-.14a6 6 0 0 1 6-6Z" fill="#000" fill-rule="nonzero"/><path d="M353.697 162.617c0-25.585-13.025-46.326-29.092-46.326-16.066 0-29.09 20.74-29.09 46.326 0 25.586 13.024 46.327 29.09 46.327 16.067 0 29.092-20.741 29.092-46.327" fill="#9E866B" fill-rule="nonzero"/><path d="M324.605 110.29c20.118 0 35.092 23.846 35.092 52.327 0 28.481-14.974 52.327-35.092 52.327-20.117 0-35.09-23.845-35.09-52.327 0-28.481 14.973-52.326 35.09-52.326Zm0 12c-12.015 0-23.09 17.638-23.09 40.327 0 22.69 11.075 40.327 23.09 40.327 12.016 0 23.092-17.638 23.092-40.327 0-22.689-11.076-40.326-23.092-40.326Z" fill="#000" fill-rule="nonzero"/><path d="M279.957 268.915c0-17.858-9.092-32.337-20.307-32.337-11.215 0-20.305 14.479-20.305 32.337 0 17.859 9.09 32.338 20.305 32.338s20.307-14.48 20.307-32.338" fill="#8B5E39" fill-rule="nonzero"/><path d="M259.65 230.578c15.265 0 26.307 17.582 26.307 38.337 0 20.755-11.042 38.338-26.307 38.338-15.266 0-26.305-17.583-26.305-38.338 0-20.755 11.04-38.337 26.305-38.337Zm0 12c-7.164 0-14.305 11.374-14.305 26.337s7.141 26.338 14.305 26.338 14.307-11.375 14.307-26.338c0-14.962-7.143-26.337-14.307-26.337Z" fill="#000" fill-rule="nonzero"/></g></g></svg>