<svg width="45" height="43" viewBox="0 0 45 43" xmlns="http://www.w3.org/2000/svg" xmlns:xlink="http://www.w3.org/1999/xlink"><defs><path id="a" d="M0 45h45V0H0z"/></defs><g transform="matrix(1 0 0 -1 0 44)" fill="none" fill-rule="evenodd"><mask id="b" fill="#fff"><use xlink:href="#a"/></mask><g mask="url(#b)"><path d="M32.88 28.14l-.22.22-11.48 11.42c3.52-4.1 2.7-9.74-2.02-12.9a13.66 13.66 0 0 0-15.48.64l6.53-6.65 3.08-3.08a8.16 8.16 0 0 1 5.67-2.14c1.32.03 2.29.47 2.26 1.26-.02.45.23.81.66 1.1 1.35.92 4.5 1.04 6.38.66.62-.12 1.2-.1 1.74.02 1.67.35 3 1.69 3.8 3.25.8 1.58 1.08 3.38.64 4.61l-.02.04-1.54 1.55z" fill="#EBE8CD" fill-rule="nonzero"/><path d="M23.77 23.16c-.49.49-1.4.61-2.04.28-.64-.34-.76-1-.27-1.49.48-.49 1.4-.6 2.03-.27.64.33.76 1 .28 1.48" fill="#A06E33" fill-rule="nonzero"/><path d="M30.57 24.65c-.49.48-1.13.34-1.43-.33a2 2 0 0 1 .33-2.1c.49-.48 1.13-.33 1.43.34a2 2 0 0 1-.33 2.09" fill="#512903" fill-rule="nonzero"/><path d="M27.38 30.12c-.34-.64-1-.77-1.49-.28-.48.49-.6 1.4-.27 2.04.33.63 1 .76 1.48.27.49-.48.61-1.4.28-2.03" fill="#885D2F" fill-rule="nonzero"/><path d="M15.93 18.67c-.73-.24-1.71-.05-2.2.44-.48.49-.29 1.08.44 1.32s1.72.05 2.2-.44c.49-.49.3-1.08-.44-1.32" fill="#8C4912" fill-rule="nonzero"/><path d="M30 18.69a4.23 4.23 0 0 0-1.74-.02c-1.88.38-5.03.26-6.38-.66L38.15 1.73c3.11 1.06 4.91 3.8 4.96 3.86L30 18.69zM42.32 18.65l.03.02-4.4 4.4c-1.26 2.64.96 4.3.08 5.17-.84.85-3.4-.03-5.15-.1l1.54-1.55c.47-1.23.2-3.05-.62-4.65l11.16-11.16c.32 4.04-1.71 6.83-2.64 7.87" fill="#BDBDBD" fill-rule="nonzero"/><path d="M18.96 15.65a8.17 8.17 0 0 0-5.67 2.14l-2.2 2.2c-.22-.66 0-1.76.44-2.2.88-.88-.88-4.4 2.64-6.16 2.36-1.18 5.28 0 7.05-1.76 0 0 5.6-5.64 6.16-6.17.56-.53 2.92-2.33 6.12-2.6L18.96 15.65z" fill="#9FA0A2" fill-rule="nonzero"/><path d="M21.88 18.01c-.43-.29-.68-.65-.66-1.1.03-.79-.94-1.23-2.26-1.26L33.5 1.1c2.7-.2 4.56.6 4.65.63L21.88 18.01z" fill="#B1B1B1" fill-rule="nonzero"/><path d="M33.8 21.94c-.8-1.56-2.13-2.9-3.8-3.25l13.1-13.1c1.69 2.37 1.85 5.07 1.86 5.19L33.8 21.94z" fill="#D8D8D8" fill-rule="nonzero"/><path d="M3.94 35.74c.09.38.26.76.55 1.05.8.8 1.84 1.6 3.22 1.63a5.5 5.5 0 0 0 3.13-.84l8.83-.08c-.3.51-.67 1-1.13 1.46-3.16 3.16-8.8 3.67-12.58 1.13a6.91 6.91 0 0 1-3.13-4.6c.33.26.74.35 1.11.25" fill="#FFAC33" fill-rule="nonzero"/><path d="M19.68 37.48v.02h-.01l.01-.02M3.7 32.7c-.03.02-.07.03-.1.06-.16.16-.24.37-.3.58-.17.04-.33.12-.47.23a6.06 6.06 0 0 0 .75-2.14c-.1.42-.08.87.12 1.27" fill="#FFAC33" fill-rule="nonzero"/><path d="M2.83 35.48v-.03.04" fill="#C1694F" fill-rule="nonzero"/><path d="M19.67 37.5l.01-.02c1.79-3 .95-6.67-2.28-8.83-3.79-2.54-9.42-2.03-12.58 1.13a7.41 7.41 0 0 0-1.24 1.65 6.21 6.21 0 0 0-.75 4.02v.03a6.9 6.9 0 0 0 3.13 4.61c3.78 2.54 9.42 2.03 12.58-1.13.46-.46.83-.95 1.13-1.46m1.51 2.28c-.17.2-.34.4-.53.59C16.52 44.5 9.12 45.2 4.2 41.85c-4.8-3.26-5.5-9.5-1.5-13.48.31-.3.64-.58.98-.85a13.66 13.66 0 0 1 15.48-.63c4.73 3.15 5.54 8.79 2.02 12.89" fill="#DFDBB9" fill-rule="nonzero"/><path d="M17.4 28.65c3.23 2.16 4.07 5.83 2.28 8.83l-.01.02-8.83.08a5.5 5.5 0 0 1-3.13.84c-1.38-.03-2.41-.83-3.22-1.64a2.13 2.13 0 0 1-.55-1.04c-.37.1-.78 0-1.1-.25l-.01-.04c-.1-.62-.1-1.25 0-1.88.14-.1.3-.19.47-.23.06-.21.14-.42.3-.58.03-.03.07-.04.1-.06-.2-.4-.23-.85-.12-1.27.32-.58.73-1.13 1.24-1.65 3.16-3.16 8.8-3.67 12.58-1.13" fill="#C1694F" fill-rule="nonzero"/><path d="M10.84 37.31l9.1-.34c-.16.35-.36.7-.61 1.05a10.46 10.46 0 0 1-11.61.31l-.01-.04a5.8 5.8 0 0 0 3.13-.98" fill="#F4900C" fill-rule="nonzero"/><path d="M8 33.64a1.25 1.25 0 1 0-1.75 1.76A1.25 1.25 0 0 0 8 33.64" fill="#D99E82" fill-rule="nonzero"/><path d="M10.21 30.56a1.87 1.87 0 1 0-2.64 2.64 1.87 1.87 0 0 0 2.64-2.64M13.3 30.12a1.25 1.25 0 1 0-1.77 1.76 1.25 1.25 0 0 0 1.76-1.76M5.8 34.96a.62.62 0 1 0-.87.88.62.62 0 1 0 .88-.88M10.65 27.47a1.25 1.25 0 1 0-1.76 1.77 1.25 1.25 0 0 0 1.76-1.77" fill="#D99E82" fill-rule="nonzero"/><path d="M9.33 36.72a1.87 1.87 0 1 0-2.64 2.64 1.87 1.87 0 0 0 2.64-2.64" fill="#FFD983" fill-rule="nonzero"/><path d="M13.3 28.35c-.5.5-1.28.5-1.77 0a1.24 1.24 0 0 1-.28-1.29c.78-.04 1.57 0 2.35.12.1.41.01.86-.3 1.17" fill="#D99E82" fill-rule="nonzero"/><path d="M20.34 35.4a1.25 1.25 0 0 1-2.08-.56c-.2-.06-.4-.16-.57-.32.5.48.5 1.27 0 1.76.49.48.5 1.27.02 1.75l-.02.02c-.49.48-1.27.47-1.76 0-.16.15-.36.24-.57.3-.05.2-.14.4-.3.57-.3.29-.7.4-1.07.35a2.48 2.48 0 0 1-4.22 1.4 2.49 2.49 0 0 1 2.45-4.13c.05-.1.11-.18.2-.26a1.24 1.24 0 0 1 1.02-2.11 1.71 1.71 0 0 1 2.23-1.02c.06-.15.15-.28.26-.4A1.25 1.25 0 0 1 17.7 31c.1-.1.2-.17.32-.22l.03-.02a1.24 1.24 0 0 1 1.42 2c.11.11.2.25.26.4v.14a1.24 1.24 0 0 1 .62 2.1" fill="#77B255" fill-rule="nonzero"/><path d="M19.02 34.08a.62.62 0 1 0-.88.88.62.62 0 1 0 .88-.88" fill="#A6D388" fill-rule="nonzero"/><path d="M16.81 28.35a1.25 1.25 0 1 0-1.76 1.77 1.25 1.25 0 0 0 1.76-1.77" fill="#FFD983" fill-rule="nonzero"/><path d="M15.5 33.2c-.62.6-1.54.7-2.25.29a1.86 1.86 0 0 1-.99.98 1.86 1.86 0 0 1-2.93 2.25 1.87 1.87 0 0 1 .59-3.04 1.86 1.86 0 0 1 2.54-2.54 1.87 1.87 0 1 1 3.03 2.06" fill="#FFD983" fill-rule="nonzero"/><path d="M14.17 31a1.56 1.56 0 1 0-2.2 2.2 1.56 1.56 0 0 0 2.2-2.2M11.97 34.08a.93.93 0 1 0-1.32 1.32.93.93 0 0 0 1.32-1.32M10.21 35.84a.93.93 0 1 0-1.32 1.32.93.93 0 0 0 1.32-1.32" fill="#FFE8B6" fill-rule="nonzero"/><path d="M11.1 38.48a.62.62 0 1 0-.89.88.62.62 0 1 0 .88-.88" fill="#A6D388" fill-rule="nonzero"/><path d="M19.46 36.28a1.25 1.25 0 1 0-1.77 1.76 1.25 1.25 0 0 0 1.77-1.76" fill="#77B255" fill-rule="nonzero"/><path d="M18.57 33.64a1.25 1.25 0 1 0-1.76 1.76 1.25 1.25 0 0 0 1.76-1.76" fill="#A6D388" fill-rule="nonzero"/><path d="M16.37 37.6c-.27.27-.6.44-.96.51a1.24 1.24 0 0 1-2.12.81 1.25 1.25 0 1 1 0-1.76l.09-.07a1.86 1.86 0 0 1 3-2.13c.72.73.72 1.9 0 2.64" fill="#A6D388" fill-rule="nonzero"/><path d="M13.73 39.36a.93.93 0 1 0-1.32 1.32.93.93 0 0 0 1.32-1.32M19.02 35.84a.93.93 0 1 0-1.33 1.32.93.93 0 0 0 1.32-1.32M18.57 31.88a1.25 1.25 0 1 0-1.76 1.76 1.25 1.25 0 0 0 1.76-1.76" fill="#DD2E44" fill-rule="nonzero"/><path d="M16.81 40.68a1.25 1.25 0 0 1-1.76-1.76 1.24 1.24 0 1 1 1.76 0c.49.49.49 1.27 0 1.76" fill="#77B255" fill-rule="nonzero"/><path d="M15.93 36.28a1.25 1.25 0 1 0-1.76 1.76 1.25 1.25 0 0 0 1.76-1.76M17.25 39.36a.62.62 0 1 0-.88.88.62.62 0 1 0 .88-.88" fill="#DD2E44" fill-rule="nonzero"/></g></g></svg>